<?xml version="1.0" standalone="no"?>
<!DOCTYPE svg PUBLIC "-//W3C//DTD SVG 20010904//EN"
 "http://www.w3.org/TR/2001/REC-SVG-20010904/DTD/svg10.dtd">
<svg version="1.0" xmlns="http://www.w3.org/2000/svg"
 width="452.000000pt" height="280.000000pt" viewBox="0 0 452.000000 280.000000"
 preserveAspectRatio="xMidYMid meet">
<g transform="translate(0.000000,280.000000) scale(0.100000,-0.100000)"
fill="#000000" stroke="none">
<path d="M2320 2270 c-278 -10 -437 -28 -490 -55 -14 -8 -33 -16 -42 -19 -13
-4 -18 -16 -18 -39 0 -25 -20 -65 -77 -154 -43 -66 -103 -161 -133 -211 l-55
-90 -115 -6 c-63 -4 -264 -18 -447 -31 -443 -33 -549 -54 -613 -120 -19 -19
-40 -35 -47 -35 -27 0 -34 -41 -30 -168 2 -70 7 -137 11 -150 7 -18 5 -21 -7
-16 -9 3 -26 -1 -39 -10 -12 -9 -30 -16 -39 -16 -36 0 -43 -27 -32 -108 11
-73 14 -79 56 -117 64 -58 134 -78 261 -74 l100 4 8 -43 c13 -80 51 -138 137
-216 39 -35 49 -29 23 13 -10 17 -21 28 -24 25 -4 -3 -9 4 -13 15 -4 12 -15
21 -26 21 -11 0 -18 4 -14 9 3 5 1 12 -5 16 -12 7 -4 25 11 25 6 0 8 -4 5 -9
-3 -4 3 -16 14 -26 19 -18 20 -17 20 5 0 15 -4 20 -14 17 -10 -4 -13 -1 -9 9
3 7 0 14 -6 14 -6 0 -10 3 -9 8 1 4 -5 21 -15 38 -9 17 -21 60 -26 94 -13 78
-21 88 -21 25 l0 -48 -22 20 c-14 12 -36 19 -56 19 -28 -2 -31 1 -26 19 9 31
48 109 57 116 5 3 8 9 8 13 -4 28 2 47 23 68 17 20 21 30 13 43 -7 13 -6 16 2
11 7 -5 15 4 22 22 6 17 17 33 25 36 8 3 11 12 7 22 -4 11 -3 15 4 11 6 -4 14
-1 17 5 5 10 7 10 12 0 5 -10 9 -9 20 6 18 26 73 34 224 36 194 1 228 -4 256
-37 13 -16 22 -33 19 -38 -4 -5 1 -6 9 -3 11 4 14 0 11 -15 -2 -12 3 -25 13
-30 14 -8 15 -12 4 -23 -11 -11 -15 -10 -23 2 -5 8 -7 24 -5 34 4 14 2 16 -6
8 -8 -8 -24 -2 -60 24 -26 20 -48 33 -48 29 0 -3 -9 -1 -21 5 -26 15 -52 19
-113 21 -56 2 -176 -28 -176 -43 0 -6 8 -7 18 -3 97 41 164 44 259 13 53 -17
80 -34 121 -73 28 -29 52 -57 52 -63 0 -7 4 -12 9 -12 14 0 41 -113 41 -174 0
-32 -5 -76 -12 -97 -10 -34 -9 -42 7 -59 11 -12 13 -20 6 -20 -7 0 -9 -4 -6
-10 3 -6 -1 -7 -10 -4 -11 4 -14 2 -10 -9 4 -8 -1 -17 -10 -21 -9 -3 -13 -10
-10 -16 3 -5 1 -11 -4 -11 -6 -1 -17 -2 -23 -3 -7 -1 -12 -7 -11 -14 2 -6 -8
-14 -22 -18 -14 -3 -22 -11 -18 -17 3 -5 1 -7 -5 -3 -6 3 -13 2 -16 -3 -4 -5
-2 -12 4 -16 6 -4 7 -11 4 -17 -4 -6 -2 -8 4 -5 5 4 18 4 29 0 16 -6 15 -8 -7
-14 -36 -10 -181 -9 -205 1 -17 7 -16 9 10 10 62 3 131 25 159 51 11 11 26 19
33 19 7 0 13 5 13 10 0 15 -3 14 -77 -27 -64 -36 -73 -38 -155 -38 -49 0 -88
-4 -88 -8 0 -4 6 -7 12 -6 25 3 41 -1 34 -8 -4 -5 -46 -8 -94 -9 -70 0 -89 3
-104 18 -15 15 -30 17 -85 13 -38 -2 -134 -7 -216 -10 -81 -3 -155 -9 -164
-12 -80 -31 458 -42 1997 -42 1202 -1 1848 8 1916 25 56 14 -7 24 -220 33
-119 6 -223 8 -231 5 -26 -10 -17 4 32 48 51 47 103 145 103 194 l0 30 108 10
c79 7 122 17 164 36 66 31 82 56 92 144 6 59 5 63 -20 83 -15 12 -32 21 -39
21 -8 0 -10 13 -6 42 l6 43 54 5 c64 7 83 26 108 109 25 81 25 383 1 462 -26
82 -42 93 -151 99 l-91 5 -23 120 c-13 66 -21 137 -18 157 7 51 -7 57 -164 68
-175 12 -1284 20 -1551 10z m1578 -37 c91 -6 109 -13 74 -32 -28 -15 -2129
-21 -2108 -6 24 18 218 37 456 45 236 9 1430 3 1578 -7z m136 -233 c60 -314
67 -360 73 -528 4 -119 3 -177 -7 -218 -11 -43 -11 -60 -2 -75 7 -10 12 -21
12 -24 0 -3 -46 -5 -102 -5 l-103 0 -34 65 c-45 87 -107 150 -162 166 -26 7
-119 12 -229 13 -162 1 -190 -2 -223 -18 -44 -22 -92 -82 -201 -253 l-78 -123
-756 0 -757 0 -77 136 -76 135 78 134 c43 74 88 148 99 164 12 16 33 49 46 73
l25 43 -7 -65 c-4 -36 -7 -81 -6 -100 1 -19 1 -96 0 -170 -1 -305 2 -321 73
-332 25 -3 203 -7 396 -7 332 -1 353 0 375 18 l24 19 -1 537 c-2 497 -3 537
-19 555 -18 20 -17 20 25 20 33 0 40 -3 32 -13 -7 -8 -11 -171 -12 -497 -2
-642 -5 -586 25 -616 l25 -25 236 3 236 3 27 34 c14 19 72 106 128 195 l103
161 0 87 0 88 430 -3 c237 -1 430 1 430 5 0 15 -157 21 -496 16 l-361 -5 -7
186 c-10 281 -16 341 -38 363 -17 17 -7 18 370 18 297 1 394 4 417 14 17 7 31
13 31 12 1 -1 18 -84 38 -186z m-2174 158 c0 -4 -8 -9 -18 -13 -11 -3 -65 -81
-122 -173 -56 -92 -117 -189 -135 -217 -17 -27 -43 -69 -56 -93 -13 -24 -25
-39 -27 -33 -4 13 20 59 88 166 150 234 200 322 200 347 0 24 3 26 35 25 19
-1 35 -5 35 -9z m1284 -9 c14 -7 28 -19 31 -28 6 -14 19 -240 27 -453 l3 -78
-371 0 -372 0 -4 263 c-2 144 -1 266 3 270 3 4 156 8 340 9 247 0 320 3 279
10 -30 5 -178 8 -328 6 -149 -2 -272 0 -272 5 0 12 636 9 664 -4z m-760 -18
c14 -12 16 -46 16 -277 l0 -264 -347 0 c-242 1 -343 4 -330 11 11 7 15 17 12
32 l-6 22 263 3 c286 3 321 6 340 30 20 24 18 386 -2 406 -13 13 -54 16 -234
18 l-218 3 -32 -36 c-17 -21 -60 -87 -95 -148 -35 -61 -69 -111 -76 -111 -7 0
-18 -7 -25 -15 -7 -8 -16 -15 -20 -15 -10 0 158 273 193 315 24 28 30 30 124
36 167 11 418 5 437 -10z m-484 -42 c-14 -5 -38 -24 -53 -42 l-29 -32 22 32
c23 35 46 53 70 52 8 0 4 -5 -10 -10z m143 4 c-13 -2 -35 -2 -50 0 -16 2 -5 4
22 4 28 0 40 -2 28 -4z m282 -14 c11 -17 -1 -21 -15 -4 -8 9 -8 15 -2 15 6 0
14 -5 17 -11z m-40 -9 c25 -9 26 -12 23 -81 l-3 -72 -257 -1 c-142 0 -258 1
-258 4 0 18 89 137 110 147 31 16 346 18 385 3z m42 -297 c-2 -27 -3 -5 -3 47
0 52 1 74 3 48 2 -27 2 -69 0 -95z m-280 112 c133 0 245 -3 249 -7 4 -4 6 -40
5 -80 -1 -52 -6 -76 -17 -84 -9 -8 -61 -12 -137 -12 -240 -1 -268 -6 -62 -12
l210 -6 -217 -2 c-121 -1 -218 2 -218 7 0 5 -9 11 -21 14 -16 4 -19 9 -11 24
7 12 7 25 0 37 -8 14 -8 17 2 11 9 -6 9 -2 -1 16 -16 31 -35 50 -43 42 -3 -3
-8 2 -12 11 -3 9 -10 14 -14 11 -5 -3 -12 0 -16 6 -5 8 -3 9 6 4 10 -6 12 -4
7 9 -4 10 -3 15 3 11 6 -3 10 -1 10 5 0 8 6 9 18 4 9 -5 126 -8 259 -9z m2217
-20 c32 -33 41 -96 41 -295 0 -188 -1 -197 -25 -245 -21 -42 -31 -51 -62 -59
-28 -7 -45 -6 -63 4 l-25 13 0 211 c-1 196 -10 327 -26 369 -5 15 2 17 69 17
55 0 80 -4 91 -15z m-2475 -62 c5 -10 11 -31 12 -48 l4 -30 -90 -5 c-49 -3
-92 -5 -94 -3 -13 8 15 55 42 69 69 36 112 42 126 17z m-190 -84 c-8 -32 -6
-49 10 -84 16 -37 25 -45 58 -52 21 -4 194 -8 385 -8 l348 0 0 -157 0 -158
-415 0 -414 0 0 218 c1 157 5 226 15 250 18 44 24 40 13 -9z m725 -14 c-4 -8
-10 -15 -15 -15 -4 0 -6 7 -3 15 4 8 10 15 15 15 4 0 6 -7 3 -15z m-516 -12
c-3 -15 -17 -18 -96 -21 -76 -2 -92 0 -92 12 0 12 17 16 78 19 42 1 85 4 95 5
13 1 17 -4 15 -15z m-318 -45 c0 -47 -4 -48 -281 -63 -295 -16 -528 -32 -605
-41 -39 -5 -58 -2 -77 11 -22 14 -32 15 -62 5 -19 -6 -35 -15 -35 -20 0 -4
-18 -10 -40 -12 -82 -7 -23 32 82 56 95 22 197 34 493 56 339 25 353 26 448
28 74 2 77 1 77 -20z m207 -17 c18 -11 14 -13 -22 -15 -19 -1 -35 11 -35 26 0
9 34 2 57 -11z m-245 -93 c-16 -24 -55 -89 -86 -145 -32 -57 -62 -103 -66
-103 -5 0 -18 14 -30 30 -12 17 -40 40 -63 53 -40 20 -54 22 -257 21 -142 0
-230 -4 -258 -12 -59 -18 -103 -60 -146 -142 -37 -71 -43 -75 -84 -64 -22 6
-23 7 -20 164 l3 158 85 16 c91 17 672 59 893 65 l58 1 -29 -42z m1749 -50
c-1 -45 -7 -91 -13 -102 -25 -49 -194 -310 -215 -332 l-22 -24 -234 0 c-198 0
-237 2 -247 15 -9 11 -11 37 -6 92 4 50 2 80 -5 89 -6 8 -8 14 -3 15 5 0 145
0 311 -1 201 -1 303 2 308 9 4 8 -92 11 -310 11 l-316 0 8 108 c4 59 8 131 7
160 l-1 52 370 -5 370 -5 -2 -82z m-2684 46 c2 -7 -12 -13 -37 -16 -42 -4 -51
4 -22 21 21 13 54 10 59 -5z m1940 -31 c-4 -17 -4 -17 -12 0 -4 9 -4 25 0 35
8 16 8 16 12 0 3 -10 3 -26 0 -35z m-887 17 c0 -11 -4 -20 -10 -20 -5 0 -10 9
-10 20 0 11 5 20 10 20 6 0 10 -9 10 -20z m-1142 -105 c2 -49 0 -123 -3 -162
l-7 -73 -64 0 c-61 0 -65 2 -75 26 -5 15 -8 81 -7 148 l3 121 35 18 c21 10 51
16 75 15 l40 -3 3 -90z m736 -44 c60 -15 118 -80 203 -229 41 -73 73 -135 72
-137 -2 -2 -15 -5 -28 -7 -21 -2 -30 6 -57 55 -77 135 -149 232 -187 250 -74
37 -410 32 -486 -8 -19 -9 -44 -38 -62 -70 -26 -47 -35 -55 -60 -55 -16 0 -29
4 -29 8 0 18 79 138 103 156 47 35 113 45 307 45 102 0 202 -4 224 -8z m2573
-19 c29 -15 56 -43 92 -98 28 -41 51 -82 51 -91 0 -32 -40 -5 -82 57 -60 88
-85 100 -240 107 -68 3 -156 1 -197 -5 -94 -14 -115 -33 -218 -199 -73 -118
-77 -123 -110 -123 -41 0 -44 -7 72 170 128 194 163 212 425 207 146 -3 170
-6 207 -25z m-38 -76 c11 -10 25 -15 30 -11 6 3 11 2 11 -4 0 -5 -4 -13 -10
-16 -5 -3 -10 -11 -10 -16 0 -6 7 -3 16 5 19 20 25 20 18 1 -4 -8 -1 -15 5
-15 6 0 11 -7 11 -16 0 -8 4 -13 9 -10 5 4 7 -4 5 -16 -2 -13 -1 -17 2 -10 8
18 29 -12 39 -55 3 -18 11 -33 16 -33 5 0 9 -9 9 -20 0 -11 4 -20 10 -20 5 0
6 -7 3 -17 -5 -12 -3 -14 7 -8 10 6 12 4 7 -8 -3 -8 0 -21 8 -27 8 -6 17 -25
20 -41 4 -16 11 -29 16 -29 6 0 7 -4 4 -10 -3 -5 -20 -10 -37 -10 -21 0 -38
-9 -58 -31 -43 -49 -50 -58 -51 -66 -3 -21 -15 -42 -47 -82 -30 -37 -33 -45
-19 -52 14 -8 12 -14 -13 -41 -21 -23 -26 -34 -18 -39 23 -14 -41 -30 -78 -20
-19 5 -34 6 -34 2 0 -11 -128 -13 -134 -2 -3 5 16 8 42 8 60 0 178 40 197 67
10 13 15 15 15 7 0 -8 3 -12 6 -8 3 3 3 10 0 16 -5 7 -22 1 -48 -15 -63 -40
-133 -57 -205 -51 -35 4 -63 2 -63 -2 0 -5 10 -7 23 -4 18 5 20 3 10 -7 -13
-14 -156 -23 -186 -11 -17 6 -18 8 -3 20 15 13 15 16 -1 35 l-18 21 23 -19
c12 -11 21 -25 18 -31 -2 -7 2 -12 9 -12 16 0 15 18 0 29 -6 5 -5 12 2 19 10
10 16 9 30 -3 28 -24 83 -43 83 -29 0 4 -16 13 -35 21 -19 8 -35 17 -35 22 0
4 -4 7 -9 6 -6 -2 -36 25 -69 58 -53 56 -60 68 -75 135 -34 153 -34 164 0 106
11 -18 23 -52 27 -76 8 -52 35 -106 73 -146 15 -16 28 -34 28 -40 0 -5 8 -9
18 -7 9 2 17 -2 17 -8 0 -6 4 -9 9 -5 5 3 18 -5 28 -18 23 -30 48 -46 41 -26
-4 11 11 14 81 14 74 0 93 4 137 27 29 15 53 26 55 25 2 -1 3 0 2 2 -1 2 18
26 42 53 25 28 43 53 40 58 -2 4 7 18 20 30 25 24 36 51 12 32 -10 -9 -12 2
-9 54 5 81 -25 170 -74 216 -18 17 -30 36 -27 41 3 6 1 7 -4 4 -6 -4 -21 2
-35 12 -39 31 -99 44 -179 38 -111 -9 -164 -21 -161 -36 2 -8 -5 -22 -14 -32
-19 -21 -39 -26 -28 -6 5 8 2 8 -9 -2 -18 -15 -23 -26 -7 -16 16 10 12 -1 -14
-39 -13 -19 -26 -33 -29 -30 -3 3 -5 -1 -4 -8 1 -7 -2 -34 -7 -60 -7 -40 -10
-45 -22 -33 -19 19 -18 45 6 100 11 26 17 52 13 57 -4 7 -1 8 7 3 9 -6 10 -1
5 16 -4 17 -3 20 3 10 13 -19 32 -5 27 20 -3 15 0 19 11 15 8 -3 23 3 34 14
11 11 17 20 13 20 -27 1 113 40 162 45 201 21 376 -139 371 -339 0 -31 2 -56
7 -56 13 0 7 115 -9 171 -9 30 -26 68 -37 84 -34 48 -103 111 -134 123 -15 5
-37 14 -48 18 -96 36 -279 8 -327 -50 -25 -30 -33 -12 -12 25 36 60 64 67 259
65 151 -2 177 -5 194 -20z m-2989 0 c0 -3 -4 -8 -10 -11 -5 -3 -10 -1 -10 4 0
6 5 11 10 11 6 0 10 -2 10 -4z m3426 -32 c-3 -9 -6 -27 -6 -40 0 -14 -4 -22
-10 -19 -11 7 -14 58 -3 68 12 13 25 7 19 -9z m-2105 -4 l369 0 0 -89 c0 -68
-4 -93 -16 -105 -13 -14 -64 -16 -399 -16 -454 0 -420 -9 -412 114 3 50 2 67
-3 46 -6 -28 -8 -30 -9 -10 0 14 2 36 6 49 5 21 10 23 51 17 25 -3 211 -6 413
-6z m416 -57 c-3 -10 -5 -4 -5 12 0 17 2 24 5 18 2 -7 2 -21 0 -30z m1110 12
c64 -19 136 -82 170 -149 38 -73 39 -180 1 -251 -69 -130 -206 -190 -343 -150
-83 24 -166 107 -190 190 -31 107 -3 218 74 292 32 32 38 42 28 53 -10 12 -9
12 4 2 12 -9 26 -7 65 8 60 23 124 25 191 5z m-3016 -43 l36 -4 -28 -51 c-15
-29 -40 -83 -55 -122 -32 -83 -31 -81 -70 -90 l-32 -6 -3 114 c-5 140 -9 147
-90 147 -35 0 -59 4 -59 11 0 10 218 11 301 1z m735 -32 c4 -16 11 -28 16 -27
6 1 12 -3 14 -8 2 -6 -4 -11 -13 -12 -18 -1 -57 60 -46 71 13 13 24 5 29 -24z
m-917 -8 c5 -10 12 -65 16 -124 l7 -106 -44 5 c-102 13 -157 63 -170 154 -12
89 0 98 125 91 41 -3 60 -9 66 -20z m3808 10 c21 -11 22 -17 16 -80 -9 -99
-41 -127 -162 -138 l-70 -7 -12 29 c-7 16 -32 71 -56 123 l-43 93 153 -4 c92
-2 161 -9 174 -16z m-1013 -57 c-4 -8 -11 -12 -16 -9 -6 4 -5 10 3 15 19 12
19 11 13 -6z m-1830 -16 c-3 -5 0 -9 5 -9 6 0 11 -7 11 -15 0 -8 9 -24 20 -35
11 -11 18 -20 15 -20 -3 0 2 -14 10 -30 9 -17 13 -34 11 -39 -3 -5 1 -14 9
-21 21 -17 9 -30 -25 -26 -18 2 -31 -2 -34 -11 -3 -8 -11 -11 -17 -7 -7 4 -9
3 -6 -3 4 -6 -3 -13 -14 -16 -16 -4 -19 -2 -14 10 16 43 17 130 1 176 -18 54
-15 68 14 60 11 -3 17 -9 14 -14z m1797 -61 c-22 -66 3 -193 50 -259 16 -23
17 -28 4 -45 -14 -18 -14 -18 -15 -1 0 10 -7 25 -15 33 -8 9 -15 24 -15 35 0
10 -5 19 -11 19 -6 0 -8 7 -5 17 4 10 4 14 0 10 -4 -4 -13 2 -21 13 -9 12 -26
20 -44 20 -32 0 -39 19 -14 40 8 7 12 17 9 22 -3 5 10 34 30 64 20 30 33 54
29 54 -5 0 -1 4 7 10 21 13 23 6 11 -32z m-1651 -101 c0 -41 -15 -30 -48 35
-28 56 -28 57 -8 60 25 4 55 -49 56 -95z m1500 93 c0 -6 -264 -11 -735 -11
-404 -1 -740 -2 -747 -3 -6 -1 -13 5 -15 11 -4 10 153 13 746 13 483 0 751 -4
751 -10z m80 -1 c0 -4 -12 -32 -26 -63 -29 -63 -61 -79 -49 -25 14 62 33 95
54 95 12 0 21 -3 21 -7z m-80 -59 c0 -7 -255 -10 -745 -10 -490 0 -745 3 -745
10 0 7 255 10 745 10 490 0 745 -3 745 -10z m-13 -42 c-3 -10 -156 -12 -733
-9 -407 2 -733 7 -738 12 -6 5 297 9 733 9 590 0 742 -3 738 -12z m3 -38 c0
-5 -8 -10 -17 -10 -15 0 -16 2 -3 10 19 12 20 12 20 0z m47 -12 c-3 -8 -6 -5
-6 6 -1 11 2 17 5 13 3 -3 4 -12 1 -19z m-2379 -37 c25 -55 28 -75 10 -68 -7
2 -12 11 -12 20 1 10 -3 14 -9 10 -6 -4 -8 0 -4 10 4 10 1 17 -5 17 -6 0 -9 3
-5 6 3 3 2 17 -3 30 -17 44 5 25 28 -25z m2238 37 c3 -4 0 -13 -7 -21 -10 -10
-22 -12 -43 -6 -17 5 -36 4 -47 -2 -11 -5 -19 -6 -19 -1 0 4 -37 9 -82 11 -93
3 -122 13 -63 22 52 7 252 5 261 -3z m124 2 c0 -5 -2 -10 -4 -10 -3 0 -8 5
-11 10 -3 6 -1 10 4 10 6 0 11 -4 11 -10z m-451 -24 c31 -27 319 -42 343 -18
8 8 44 12 103 12 l90 0 27 -59 c16 -33 47 -79 71 -103 l44 -43 -1024 -1 c-563
-1 -1023 0 -1023 2 0 1 16 11 36 20 20 10 53 39 74 66 33 41 44 64 64 133 2 7
206 9 592 7 483 -2 591 -5 603 -16z m1283 5 c-7 -4 -14 -23 -17 -42 -2 -18 -9
-35 -15 -37 -5 -2 -8 -7 -5 -11 6 -10 -53 -66 -61 -58 -6 6 2 17 58 77 9 10
13 20 7 22 -5 2 0 18 12 37 11 18 23 30 27 27 3 -4 1 -11 -6 -15z m-2502 -7
c0 -3 -7 -12 -15 -21 -20 -19 -32 -9 -15 12 12 15 30 20 30 9z m1895 -118 c8
-7 11 -16 8 -20 -4 -3 1 -6 11 -6 9 0 14 -4 11 -10 -3 -5 -1 -10 6 -10 10 0
10 -3 2 -11 -9 -9 -19 -6 -42 10 -34 25 -33 23 -25 45 8 20 12 20 29 2z
m-1970 -126 c-3 -5 -12 -7 -20 -3 -21 7 -19 13 6 13 11 0 18 -4 14 -10z m283
3 c-15 -2 -42 -2 -60 0 -18 2 -6 4 27 4 33 0 48 -2 33 -4z m245 0 c-7 -2 -21
-2 -30 0 -10 3 -4 5 12 5 17 0 24 -2 18 -5z m80 0 c-7 -2 -21 -2 -30 0 -10 3
-4 5 12 5 17 0 24 -2 18 -5z m80 0 c-7 -2 -19 -2 -25 0 -7 3 -2 5 12 5 14 0
19 -2 13 -5z m205 0 c-16 -2 -40 -2 -55 0 -16 2 -3 4 27 4 30 0 43 -2 28 -4z
m90 0 c-10 -2 -28 -2 -40 0 -13 2 -5 4 17 4 22 1 32 -1 23 -4z m600 0 c-32 -2
-84 -2 -115 0 -32 2 -6 3 57 3 63 0 89 -1 58 -3z m240 0 c-10 -2 -28 -2 -40 0
-13 2 -5 4 17 4 22 1 32 -1 23 -4z"/>
<path d="M3315 2114 c-11 -4 -28 -13 -39 -23 -17 -15 -18 -26 -12 -136 4 -66
11 -153 14 -194 11 -116 -4 -111 352 -111 273 0 300 2 320 18 l23 18 -22 155
c-39 274 -35 269 -193 269 -62 0 -183 2 -268 5 -85 2 -164 2 -175 -1z m563
-37 c12 -11 23 -38 27 -65 3 -26 9 -57 12 -68 l5 -22 -321 -1 -321 -1 0 80 c0
74 1 80 23 84 12 3 31 7 42 10 11 2 131 3 267 2 221 -1 248 -3 266 -19z m41
-214 c1 -16 2 -41 2 -56 0 -15 4 -25 9 -22 6 4 10 1 10 -4 0 -6 -6 -11 -12
-11 -8 0 -9 -3 -3 -8 12 -8 17 -74 5 -67 -5 3 -11 1 -15 -4 -3 -6 -116 -9
-296 -8 -313 2 -307 1 -310 57 -1 14 -1 37 0 52 1 15 -2 43 -8 63 l-9 35 313
0 313 0 1 -27z"/>
<path d="M3943 2088 c-7 -9 0 -69 22 -189 36 -199 39 -209 59 -209 30 0 27 33
-31 360 -9 46 -31 63 -50 38z m56 -178 c33 -184 35 -208 24 -196 -10 10 -72
359 -66 369 3 5 7 7 8 5 2 -2 18 -82 34 -178z"/>
<path d="M3261 1437 c-6 -8 -8 -17 -4 -20 3 -4 179 -7 389 -7 375 0 425 4 383
31 -8 5 -181 9 -385 9 -299 0 -374 -3 -383 -13z m577 -14 c-104 -2 -272 -2
-375 0 -104 1 -19 2 187 2 206 0 291 -1 188 -2z"/>
<path d="M1440 1425 c0 -11 12 -15 50 -15 38 0 50 4 50 15 0 11 -12 15 -50 15
-38 0 -50 -4 -50 -15z"/>
<path d="M2530 2097 l-25 -13 0 -185 c0 -186 6 -219 38 -219 5 0 3 8 -6 18
-13 14 -17 35 -15 83 l2 64 3 -60 c7 -98 -4 -95 288 -95 295 0 288 -2 304 95
l10 60 -3 -68 c-2 -38 -9 -74 -14 -79 -20 -20 -109 -26 -335 -22 -149 2 -226
0 -222 -6 9 -15 -8 -12 -33 6 -12 8 -22 11 -22 5 0 -26 49 -31 323 -31 268 0
285 1 301 19 16 18 18 40 14 210 -3 166 -5 193 -21 208 -16 16 -44 18 -290 21
-207 2 -278 -1 -297 -11z m8 -27 c-7 -10 -14 -17 -17 -15 -4 4 18 35 25 35 2
0 -1 -9 -8 -20z m572 -2 c0 -6 -6 -5 -15 2 -8 7 -15 14 -15 16 0 2 7 1 15 -2
8 -4 15 -11 15 -16z m-27 -7 c13 -10 17 -31 17 -85 l0 -71 -282 2 -283 2 -3
53 c-4 69 4 97 31 108 12 5 130 8 263 7 187 -2 245 -5 257 -16z m-556 -203
c-3 -7 -5 -2 -5 12 0 14 2 19 5 13 2 -7 2 -19 0 -25z m567 -55 c-3 -80 -9 -97
-30 -89 -8 3 -14 1 -14 -4 0 -14 -443 -13 -474 1 -28 13 -35 40 -34 122 l1 47
277 -2 277 -3 -3 -72z"/>
<path d="M2210 1500 c-9 -6 -10 -10 -3 -10 6 0 15 5 18 10 8 12 4 12 -15 0z"/>
<path d="M2245 1471 c-6 -5 -21 -11 -35 -13 -17 -2 -26 -10 -28 -25 -2 -13 1
-24 7 -24 6 -1 15 -2 21 -3 5 0 15 -7 22 -13 14 -15 32 -16 56 -4 9 6 34 13
55 16 38 6 48 24 23 44 -7 6 -21 9 -30 5 -9 -3 -27 1 -41 10 -28 18 -37 20
-50 7z m65 -36 c11 -13 5 -15 -49 -15 -72 0 -82 17 -13 23 26 2 48 4 48 5 1 1
7 -5 14 -13z m50 -5 c0 -5 -7 -10 -15 -10 -8 0 -15 5 -15 10 0 6 7 10 15 10 8
0 15 -4 15 -10z m-88 -32 c-9 -9 -15 -9 -24 0 -9 9 -7 12 12 12 19 0 21 -3 12
-12z"/>
<path d="M1658 1443 c-40 -3 -58 -8 -58 -17 0 -8 8 -15 18 -18 9 -2 133 -2
275 0 203 3 257 7 257 17 0 7 -6 15 -12 17 -17 5 -408 6 -480 1z"/>
<path d="M485 1440 c-4 -6 -3 -14 0 -20 9 -14 872 -14 880 1 4 6 5 12 4 14
-10 8 -879 13 -884 5z m178 -17 c-29 -2 -77 -2 -105 0 -29 2 -6 3 52 3 58 0
81 -1 53 -3z"/>
<path d="M3045 1470 c-3 -5 -17 -10 -30 -10 -13 0 -27 -5 -30 -10 -11 -18 6
-50 25 -50 11 0 31 -5 44 -12 21 -9 29 -8 44 5 10 10 33 17 50 17 25 0 32 4
32 19 0 19 -25 35 -41 26 -4 -3 -22 1 -38 10 -35 18 -47 19 -56 5z m75 -40 c0
-6 -27 -10 -60 -10 -33 0 -60 4 -60 10 0 6 27 10 60 10 33 0 60 -4 60 -10z
m40 0 c0 -5 -4 -10 -10 -10 -5 0 -10 5 -10 10 0 6 5 10 10 10 6 0 10 -4 10
-10z m-73 -26 c-3 -3 -12 -4 -19 -1 -8 3 -5 6 6 6 11 1 17 -2 13 -5z"/>
<path d="M2523 1442 c-29 -2 -43 -8 -43 -18 0 -12 38 -14 240 -14 207 0 240 2
240 15 0 8 -6 15 -12 15 -84 3 -393 4 -425 2z"/>
<path d="M2976 1121 c-14 -15 -15 -21 -4 -27 7 -4 10 -3 5 1 -4 5 0 17 10 27
9 10 14 18 11 18 -3 0 -13 -9 -22 -19z"/>
<path d="M300 1455 c-9 -11 -10 -22 -2 -42 6 -16 13 -50 17 -78 12 -95 25
-110 45 -50 10 32 7 119 -6 168 -6 21 -37 22 -54 2z m49 -108 c1 -43 -3 -76
-7 -73 -5 3 -9 47 -10 98 -1 62 2 86 8 73 5 -11 9 -55 9 -98z"/>
<path d="M294 1311 c1 -39 5 -56 16 -59 12 -4 13 -2 3 9 -6 8 -14 35 -16 59
-4 39 -4 38 -3 -9z"/>
<path d="M3354 1159 c-15 -10 -32 -15 -37 -12 -6 3 -7 1 -4 -4 4 -6 -4 -18
-17 -26 -57 -38 -104 -172 -84 -243 24 -89 89 -169 164 -200 79 -33 205 -6
275 60 15 14 30 23 33 20 3 -2 4 -1 1 2 -2 4 5 24 16 45 29 57 35 144 14 199
-9 25 -17 53 -18 62 -1 9 -3 15 -5 13 -3 -2 -13 6 -24 20 -10 13 -46 38 -81
55 -54 27 -71 31 -134 29 -50 -1 -80 -7 -99 -20z m228 -20 c43 -22 56 -38 29
-36 -11 0 -18 4 -16 8 8 12 -71 39 -122 41 -30 1 -47 6 -40 10 18 12 107 -2
149 -23z m-172 4 c0 -10 11 -41 24 -70 24 -50 45 -66 91 -67 11 -1 19 -7 17
-14 -1 -8 2 -11 8 -7 5 3 10 1 10 -5 0 -6 5 -8 12 -4 8 5 4 13 -11 25 l-22 18
23 12 c13 6 37 24 53 40 30 28 31 28 47 10 14 -17 12 -22 -38 -71 -64 -64 -75
-98 -44 -143 12 -18 40 -46 62 -62 28 -21 35 -31 24 -33 -9 -2 -16 -11 -16
-20 0 -12 -6 -10 -27 10 -104 94 -145 89 -180 -23 -15 -50 -22 -59 -42 -59
-20 0 -22 3 -16 28 20 73 23 117 9 140 -8 12 -19 22 -24 22 -6 0 -10 14 -10
31 0 19 -4 28 -11 23 -6 -3 -8 -17 -4 -31 5 -21 3 -24 -10 -19 -9 3 -39 6 -66
6 -46 0 -49 2 -49 25 0 23 4 25 44 25 122 0 146 29 114 143 -15 57 -16 72 -6
78 21 14 38 10 38 -8z m-72 -27 c-10 -7 -16 -16 -13 -19 3 -4 2 -5 -1 -3 -10
7 -32 -18 -26 -29 3 -5 2 -7 -3 -3 -11 11 -40 -40 -49 -85 -4 -21 -11 -35 -16
-32 -21 13 47 151 88 174 25 15 40 13 20 -3z m219 -7 c42 -20 54 -45 20 -43
-9 1 -15 -2 -12 -6 7 -12 -16 -28 -50 -34 -22 -5 -25 -4 -10 2 18 8 16 10 -13
17 -31 6 -56 39 -45 58 2 4 -1 7 -6 7 -6 0 -11 5 -11 10 0 18 82 11 127 -11z
m-193 -118 c-10 -11 -21 -18 -26 -15 -4 3 -5 -1 -2 -9 4 -10 -5 -17 -31 -21
-21 -4 -39 -6 -41 -4 -10 11 21 80 53 118 l38 44 13 -47 c11 -41 11 -48 -4
-66z m344 -41 l0 -35 -8 35 c-4 19 -10 49 -14 65 l-6 30 14 -30 c9 -16 15 -46
14 -65z m-33 38 c13 -32 12 -48 -3 -48 -4 0 -8 8 -8 18 0 9 -4 27 -8 40 -11
34 3 26 19 -10z m-20 -45 c7 -43 -9 -113 -25 -113 -18 0 -24 27 -21 85 6 106
30 121 46 28z m-285 23 c0 -3 -4 -8 -10 -11 -5 -3 -10 -1 -10 4 0 6 5 11 10
11 6 0 10 -2 10 -4z m230 -38 c0 -13 -5 -30 -10 -38 -7 -11 -10 -5 -10 23 0
20 5 37 10 37 6 0 10 -10 10 -22z m90 -11 c0 -17 -33 -107 -39 -107 -5 0 -1
25 8 55 9 30 19 55 24 55 4 0 7 -1 7 -3z m10 -82 c-6 -19 -15 -35 -20 -35 -4
0 -1 22 8 50 10 27 18 43 20 35 2 -9 -2 -31 -8 -50z m-328 2 c23 -29 23 -44 0
-24 -16 15 -19 15 -19 2 0 -8 2 -13 5 -10 2 2 12 -3 21 -12 10 -11 12 -18 4
-20 -6 -2 -8 -14 -5 -26 5 -21 5 -21 -28 4 -39 29 -65 64 -74 95 -6 19 -3 21
36 17 29 -3 49 -11 60 -26z m-92 -57 c0 -6 5 -8 12 -4 6 4 9 3 6 -2 -3 -5 0
-15 8 -22 8 -7 14 -10 14 -7 0 2 11 -5 25 -17 32 -28 24 -36 -12 -13 -34 22
-58 49 -83 97 -28 52 -25 60 5 16 14 -20 25 -42 25 -48z m278 14 c12 -8 20
-20 17 -25 -3 -5 2 -6 12 -3 11 3 7 -4 -11 -19 -27 -23 -111 -46 -123 -33 -10
10 23 79 42 87 29 12 38 11 63 -7z m67 -64 c-20 -32 -185 -78 -185 -51 0 6 20
11 48 11 32 1 60 8 87 25 42 26 60 32 50 15z"/>
<path d="M3410 1025 c-14 -16 -10 -18 14 -9 9 3 16 10 16 15 0 14 -16 11 -30
-6z"/>
<path d="M3415 994 c-17 -18 -46 -70 -44 -81 3 -24 38 -67 62 -78 23 -9 37 -9
64 0 42 15 53 29 53 73 0 44 -14 68 -50 87 -37 19 -65 19 -85 -1z m79 -10 c8
-3 12 -12 9 -20 -3 -10 2 -17 14 -20 10 -3 20 -14 20 -26 1 -11 -1 -18 -4 -14
-10 9 -33 -15 -33 -34 0 -10 -7 -21 -16 -24 -8 -3 -12 -2 -9 4 9 15 -23 24
-39 11 -16 -14 -29 9 -20 34 4 8 1 21 -5 29 -16 20 -4 45 20 39 11 -3 21 1 25
11 7 17 14 19 38 10z m-84 -74 c0 -5 -5 -10 -11 -10 -5 0 -7 5 -4 10 3 6 8 10
11 10 2 0 4 -4 4 -10z m120 -30 c0 -5 -4 -10 -10 -10 -5 0 -10 5 -10 10 0 6 5
10 10 10 6 0 10 -4 10 -10z"/>
<path d="M3441 936 c-6 -7 -9 -20 -5 -29 15 -41 73 -20 59 22 -7 24 -37 28
-54 7z m34 -15 c3 -5 1 -12 -4 -15 -5 -3 -11 1 -15 9 -6 16 9 21 19 6z"/>
<path d="M3546 845 c-3 -8 -1 -15 3 -15 5 0 11 7 15 15 3 8 1 15 -3 15 -5 0
-11 -7 -15 -15z"/>
<path d="M3420 810 c0 -6 7 -10 15 -10 8 0 15 2 15 4 0 2 -7 6 -15 10 -8 3
-15 1 -15 -4z"/>
<path d="M3455 1100 c-3 -5 1 -10 10 -10 9 0 13 5 10 10 -3 6 -8 10 -10 10 -2
0 -7 -4 -10 -10z"/>
<path d="M3496 1092 c-4 -7 0 -19 8 -28 17 -17 19 -11 7 20 -5 14 -10 16 -15
8z"/>
<path d="M3535 1050 c-3 -5 -1 -10 4 -10 6 0 11 5 11 10 0 6 -2 10 -4 10 -3 0
-8 -4 -11 -10z"/>
<path d="M3344 1047 c-3 -9 -12 -13 -21 -10 -13 5 -13 3 -2 -15 13 -20 13 -20
26 5 7 14 11 28 8 31 -2 3 -7 -2 -11 -11z"/>
<path d="M3305 990 c-3 -5 -1 -10 4 -10 6 0 11 5 11 10 0 6 -2 10 -4 10 -3 0
-8 -4 -11 -10z"/>
<path d="M3310 839 c0 -5 5 -7 10 -4 6 3 10 8 10 11 0 2 -4 4 -10 4 -5 0 -10
-5 -10 -11z"/>
<path d="M3340 779 c0 -5 5 -7 10 -4 6 3 10 8 10 11 0 2 -4 4 -10 4 -5 0 -10
-5 -10 -11z"/>
<path d="M3500 761 c0 -5 7 -11 14 -14 10 -4 13 -1 9 9 -6 15 -23 19 -23 5z"/>
<path d="M232 1092 l-53 -3 7 -47 c3 -26 10 -51 14 -55 11 -12 84 -21 112 -14
22 6 23 10 18 58 -6 60 -15 66 -98 61z m49 -32 c14 0 19 -7 19 -27 0 -26 -3
-28 -43 -28 -40 0 -44 2 -43 25 1 28 15 42 34 35 8 -3 22 -5 33 -5z"/>
<path d="M250 940 c0 -15 35 -30 69 -30 33 0 39 8 19 28 -14 14 -88 16 -88 2z"/>
<path d="M1335 709 c-4 -6 -5 -12 -2 -15 2 -3 7 2 10 11 7 17 1 20 -8 4z"/>
<path d="M3190 671 c0 -6 5 -13 10 -16 6 -3 10 1 10 9 0 9 -4 16 -10 16 -5 0
-10 -4 -10 -9z"/>
<path d="M910 1218 c-25 -5 -66 -11 -92 -14 -27 -4 -48 -11 -48 -16 0 -5 5 -6
10 -3 6 3 10 2 10 -3 0 -11 -30 -26 -43 -23 -5 1 -6 -3 -3 -8 8 -12 -18 -33
-29 -23 -5 4 -5 2 -1 -5 4 -7 -5 -31 -20 -53 -15 -23 -30 -58 -34 -78 -3 -21
-11 -36 -18 -34 -14 2 -16 -24 -3 -32 4 -3 11 -25 15 -48 9 -58 37 -117 74
-160 17 -19 29 -38 26 -41 -3 -3 3 -4 13 -4 10 1 17 -3 16 -10 -2 -7 3 -10 10
-7 7 2 26 -9 42 -26 30 -32 48 -39 39 -17 -4 10 5 12 38 7 53 -7 126 3 172 25
19 9 40 14 45 10 7 -4 8 0 4 11 -5 13 -3 15 7 9 9 -5 11 -4 6 3 -4 7 -1 12 8
12 8 0 26 18 39 41 14 22 27 37 29 32 3 -4 3 -2 2 5 -2 6 11 28 28 47 17 20
28 39 24 43 -4 3 -10 1 -14 -5 -4 -6 -7 26 -8 70 -1 65 -6 90 -23 120 -12 21
-18 43 -15 49 4 6 3 8 -3 5 -11 -7 -28 20 -24 36 1 5 -4 5 -10 1 -9 -5 -10 -2
-6 10 4 10 3 15 -3 11 -14 -9 -52 14 -44 27 4 7 3 8 -4 4 -6 -4 -25 0 -43 9
-43 23 -115 32 -169 23z m168 -37 c64 -33 99 -68 131 -133 50 -98 42 -202 -20
-294 -16 -23 -25 -45 -21 -49 4 -3 2 -5 -3 -3 -6 1 -26 -7 -46 -20 -111 -68
-224 -68 -326 0 -109 73 -151 208 -107 340 22 68 92 138 165 167 67 26 166 23
227 -8z"/>
<path d="M832 1152 c-18 -12 -39 -19 -45 -16 -7 4 -9 3 -4 -1 10 -12 -23 -46
-37 -38 -6 3 -8 3 -4 -1 3 -4 -6 -33 -20 -64 -37 -81 -36 -149 3 -227 28 -55
98 -125 126 -125 14 0 28 43 35 105 6 50 5 54 -21 71 -17 11 -53 20 -91 22
-59 4 -64 6 -64 27 0 21 5 24 60 27 l60 3 1 -30 2 -30 6 30 c3 17 14 42 24 57
17 24 17 33 7 85 -7 32 -17 66 -22 76 -11 21 -11 22 19 31 18 6 23 1 33 -30
28 -85 75 -133 115 -118 9 4 15 0 15 -9 0 -8 7 -17 15 -21 19 -7 19 3 0 24
-13 14 -9 20 37 53 43 32 53 36 64 25 12 -11 5 -23 -41 -72 -44 -46 -55 -64
-55 -91 0 -19 5 -37 11 -40 6 -4 9 2 8 17 -1 12 -1 32 0 43 l2 20 8 -20 c5
-11 4 -33 -1 -50 -8 -27 -5 -33 35 -70 40 -36 42 -42 29 -57 -14 -16 -18 -15
-48 12 -18 15 -41 33 -50 38 -15 9 -16 12 -5 26 8 9 11 19 8 23 -4 3 -9 -2
-13 -11 -3 -9 -16 -16 -27 -16 -21 0 -21 0 1 16 26 18 29 42 6 51 -20 7 -37
-17 -23 -33 6 -8 3 -13 -10 -17 -11 -2 -22 1 -25 8 -2 7 -13 15 -24 17 -16 4
-19 2 -15 -11 5 -14 4 -14 -12 1 -16 15 -16 19 -5 34 12 14 12 18 -2 28 -22
16 -7 40 24 41 14 0 22 5 20 13 -2 9 6 12 20 10 15 -2 22 -9 20 -20 -2 -13 2
-16 15 -12 15 5 16 4 3 -5 -14 -10 -7 -16 13 -12 5 1 6 -2 3 -7 -3 -5 1 -18 9
-28 14 -18 14 -17 15 11 0 41 -23 71 -65 85 -45 15 -69 6 -95 -34 -28 -47 -25
-73 13 -111 25 -25 39 -32 59 -28 15 3 29 0 33 -8 5 -8 4 -10 -3 -5 -15 9 -49
-46 -63 -100 -9 -36 -14 -40 -35 -36 -15 3 -24 0 -24 -8 0 -9 22 -11 88 -8 68
3 97 9 126 26 21 12 42 19 48 16 6 -4 8 -2 5 3 -4 6 3 19 15 29 38 34 68 113
68 181 0 163 -113 268 -280 261 -47 -2 -73 -9 -98 -26z m168 8 c49 -9 127 -47
117 -56 -2 -3 -27 7 -55 21 -34 17 -66 25 -102 25 -31 0 -49 4 -45 10 8 12 19
12 85 0z m-179 -44 c-7 -8 -28 -31 -47 -51 -20 -21 -33 -44 -30 -52 3 -8 1
-11 -4 -8 -9 5 -14 -16 -13 -52 1 -7 -3 -13 -8 -13 -30 0 25 125 73 165 32 27
47 33 29 11z m191 4 c20 -6 46 -18 58 -28 21 -17 21 -17 -22 -44 -23 -16 -49
-28 -58 -27 -10 0 -9 3 5 9 21 9 8 14 -28 11 -16 -2 -24 10 -41 67 -6 19 -4
22 21 22 15 0 45 -5 65 -10z m-157 -71 c5 -30 3 -45 -9 -58 -9 -10 -16 -23
-16 -29 0 -6 -8 -11 -17 -11 -10 1 -28 -2 -40 -6 -26 -8 -30 6 -14 48 11 28
69 97 81 97 5 0 11 -18 15 -41z m335 -57 c15 -56 12 -122 -9 -167 -11 -22 -20
-34 -20 -27 -1 7 4 23 10 35 17 32 19 113 4 163 -7 24 -9 42 -4 39 4 -3 13
-22 19 -43z m-24 -49 c-10 -10 -15 1 -21 47 l-5 45 16 -43 c9 -24 13 -46 10
-49z m-27 -20 c1 -57 -15 -99 -33 -84 -18 15 -15 133 4 156 14 16 15 16 21 -6
4 -13 7 -43 8 -66z m-279 46 c-7 -11 -14 -18 -17 -15 -3 3 0 12 7 21 18 21 23
19 10 -6z m40 -59 c0 -5 -4 -10 -10 -10 -5 0 -10 5 -10 10 0 6 5 10 10 10 6 0
10 -4 10 -10z m274 -11 c-3 -5 -10 -7 -15 -3 -5 3 -7 10 -3 15 3 5 10 7 15 3
5 -3 7 -10 3 -15z m-11 -36 c-7 -20 -33 -60 -33 -52 0 17 23 69 31 69 4 0 6
-8 2 -17z m-307 -27 c17 -16 20 -29 17 -58 -3 -21 -11 -38 -18 -38 -22 0 -105
96 -105 122 0 15 86 -6 106 -26z m-105 -26 c6 0 7 -5 4 -10 -3 -6 1 -13 9 -16
8 -3 18 -14 21 -25 4 -11 9 -18 13 -16 4 2 18 -7 31 -20 35 -34 12 -28 -32 8
-37 30 -78 95 -76 121 0 7 5 1 11 -14 5 -16 14 -28 19 -28z m303 -24 l40 -24
-34 -21 c-32 -19 -116 -39 -125 -29 -3 3 4 23 15 46 17 35 27 44 60 51 3 0 23
-10 44 -23z m56 -54 c0 -5 -17 -18 -38 -30 -39 -22 -142 -41 -142 -26 0 5 19
10 43 12 23 1 62 13 87 26 54 29 50 28 50 18z"/>
<path d="M1029 1053 c-13 -17 -13 -17 6 -3 11 8 22 16 24 17 2 2 0 3 -6 3 -6
0 -17 -8 -24 -17z"/>
<path d="M830 1050 c0 -5 5 -10 11 -10 5 0 7 5 4 10 -3 6 -8 10 -11 10 -2 0
-4 -4 -4 -10z"/>
<path d="M806 1026 c2 -6 13 -12 24 -12 23 0 17 12 -9 19 -12 3 -18 0 -15 -7z"/>
<path d="M786 996 c3 -8 1 -17 -5 -21 -6 -3 -11 -11 -11 -18 0 -6 6 -3 13 8 8
10 19 15 25 11 8 -4 10 -2 6 8 -3 8 -12 17 -19 20 -9 3 -12 0 -9 -8z"/>
<path d="M833 815 c0 -8 4 -12 9 -9 4 3 8 9 8 15 0 5 -4 9 -8 9 -5 0 -9 -7 -9
-15z"/>
<path d="M805 811 c-3 -5 -1 -12 5 -16 5 -3 10 1 10 9 0 18 -6 21 -15 7z"/>
<path d="M1012 776 c7 -8 17 -12 22 -9 4 3 2 9 -5 14 -22 13 -31 11 -17 -5z"/>
<path d="M982 766 c7 -8 15 -12 17 -11 5 6 -10 25 -20 25 -5 0 -4 -6 3 -14z"/>
<path d="M965 740 c3 -5 11 -10 16 -10 6 0 7 5 4 10 -3 6 -11 10 -16 10 -6 0
-7 -4 -4 -10z"/>
<path d="M901 1031 c-8 -5 -9 -11 -3 -15 5 -3 15 1 22 9 14 16 3 20 -19 6z"/>
<path d="M927 943 c-12 -11 -8 -40 7 -52 16 -14 42 -5 50 16 11 29 -35 58 -57
36z"/>
<path d="M900 809 c0 -5 9 -9 20 -9 11 0 20 2 20 4 0 2 -9 6 -20 9 -11 3 -20
1 -20 -4z"/>
<path d="M727 1193 c-19 -16 -41 -39 -49 -53 -7 -14 -20 -33 -30 -43 -10 -10
-18 -26 -18 -37 0 -10 -4 -22 -10 -25 -5 -3 -10 -23 -9 -43 l0 -37 13 41 c19
59 58 134 83 160 12 12 23 21 25 19 2 -1 13 8 26 21 31 32 13 30 -31 -3z"/>
<path d="M1250 757 c0 -9 -4 -17 -10 -17 -5 0 -10 -6 -10 -14 0 -8 -11 -24
-25 -34 -14 -11 -22 -23 -18 -25 9 -6 53 27 53 39 0 4 8 16 17 26 13 14 14 21
5 30 -9 9 -12 8 -12 -5z"/>
<path d="M706 673 c-10 -10 -7 -25 3 -18 5 3 17 -2 25 -11 21 -20 107 -66 113
-60 3 2 -8 12 -24 22 -15 9 -47 29 -70 45 -23 15 -44 25 -47 22z"/>
<path d="M576 653 c-6 -14 -5 -15 5 -6 7 7 10 15 7 18 -3 3 -9 -2 -12 -12z"/>
<path d="M3823 655 c0 -8 4 -12 9 -9 5 3 6 10 3 15 -9 13 -12 11 -12 -6z"/>
</g>
</svg>
